<?xml version="1.0" encoding="utf-8"?>
<!-- Generator: Adobe Illustrator 19.0.0, SVG Export Plug-In . SVG Version: 6.00 Build 0)  -->
<svg version="1.1" id="Capa_1" xmlns="http://www.w3.org/2000/svg" xmlns:xlink="http://www.w3.org/1999/xlink" x="0px" y="0px"
	 viewBox="-359 121 240 320" style="enable-background:new -359 121 240 320;" xml:space="preserve">
<style type="text/css">
	.st0{fill:#FFFFFF;}
</style>
<path id="Icono" class="st0" d="M-196.6,260.6c5.1-8.7,10.2-17.5,15-26.4c0.6-1,1.1-2.1,1.7-3.1c1.8-0.1,3.4-0.4,5.1-0.8
	c7.6-1.8,13.5-6.5,17.3-13.8c8.4-16,4.5-39.7-3.9-52.5l-1.7-2.6l-2.7,1.5c-4,2.3-9.6,3.8-15.5,5.5c-10.3,2.8-22.1,6.1-28.5,14.7
	c-5.6,7.5-7.2,15.9-4.8,24.1c0.5,1.6,1.1,3.2,1.8,4.8c-0.6,1-1.2,1.9-1.8,2.9c-10.6,17.4-20.6,35.2-30.2,53.1
	c-0.3,0.6-0.6,1.1-0.9,1.7c-1.7,0.2-3.4,0.5-5,0.7c4.3-7.9,8.4-15.4,12.4-22.5l-29.6-51.2l-48.1-35l6.3,59.2l30.4,52.7
	c-1.5,0.1-3.1,0.2-4.6,0.2l-11.5-19.9c-14-1.6-24,0.4-27.9,5.6c-1.9,2.5-2.6,5.7-1.2,8.6c3.8,7.5,18.4,12.4,35.4,12.4l0,0
	c0,0,1.8,0,2.5,0c10.3,0.2,20.9-0.8,30.9-2.4c10.7-1.5,21.4-3.2,32-4.8s21.3-2.5,31.9-2.5h0.1c10.5,0,21.1,0.5,31.3,3.3
	c0.7,0.2,1.5-0.5,1.7-1.2c0.3-0.7-0.1-1.7-0.9-1.9c-10.3-3.6-21.3-5.6-32.2-6c-0.9,0-1.9-0.1-2.8-0.1c-1.6,0-3.1-0.1-4.7-0.1
	C-198.3,263.6-197.4,262.1-196.6,260.6z M-224.3,267c-2.6,0.3-5.1,0.7-7.7,1l-3.9-2.3c11.4-20.8,20.6-36.9,28-48.9l3.8,2.2
	l17.8,10.3c-5.3,9.7-12.1,21.7-20.8,36.1C-212.8,265.8-218.6,266.3-224.3,267z M-164.9,175.4c8.9,17.4-1.7,47.9-13.9,44.4
	C-191,216.3-165.5,205.8-164.9,175.4z M-298.3,182.9l23.1,16.8c-3.6,3.8-8.1,6-13.7,6.6h-0.1c-0.8,0.1-1.5,0.6-2.1,1.2l-0.1,0.1
	c-3.3,4.5-7.4,7.3-12.6,8.5l-3-28.5L-298.3,182.9z M-301.5,222.4c4.8-1.3,8.9-3.7,12.4-7.2l32.4,56.1c-5.2,0.7-10.4,1.3-15.5,1.8
	L-301.5,222.4z M-193.9,314.8c0.3,0,0.5,0.3,0.8,0.3l0,0l0,0h-0.9v-0.6c17,0,30.9,4.5,34.6,11.7c1.5,3,1.4,6.2-0.5,8.8
	c-3.2,4.3-10.1,6.5-19.8,6.7l-12-20.9c-0.4,0.2-0.9,0.4-1.4,0.4c-1,0-2,0.3-3,0.4l21,36.6l0,0l6.8,11.6c0.5,0.8,0.8,1.5,1.1,2.4
	c1.7,5.1,0.1,11-3.9,14.6c-0.7,0.6-1.4,1.1-2.2,1.6l-18.1,10.4c-0.5,0.3-1.1,0.6-1.6,0.8c-5.5,2.2-12,0.6-15.7-3.9
	c-0.5-0.6-1.5-1.2-1.9-2l-7.3-11.8l0,0l-23.3-41.2c1.3-2.1,2.9-4.2,4.2-6.3l24,41.4l12.5-7.2l-25.6-44.4c-3.3,0.5-6.7,0.9-10,1.4
	c-13.5,21.6-28.1,44.6-43,68.2c-2.8,4.5-7.6,6.9-12.4,6.9c-2.3,0-4.7-0.6-6.9-1.8c-6.7-3.9-9-12.3-5.3-19.3
	c8.8-16.9,17.5-33.5,26-49.5c-1.6,0.1-3.1,0.1-4.7,0.1c-2.3,0-4.6,0-6.9-0.1c-10.9-0.4-21.9-2.3-32.2-5.9c-0.7-0.3-1.1-1.1-0.9-1.8
	c0.2-0.7,1-1.1,1.7-0.9c10.2,2.9,20.9,3.9,31.4,3.9c1.1,0,2.2-0.1,3.3-0.1c9.5-0.3,18.9-1.5,28.4-2.9c10.6-1.6,21.1-3.7,31.9-5.2
	C-215.3,315.5-204.7,314.5-193.9,314.8z"/>
</svg>
