<?xml version="1.0" encoding="iso-8859-1"?>
<!-- Generator: Adobe Illustrator 19.0.0, SVG Export Plug-In . SVG Version: 6.00 Build 0)  -->
<svg version="1.1" id="Capa_1" xmlns="http://www.w3.org/2000/svg" xmlns:xlink="http://www.w3.org/1999/xlink" x="0px" y="0px"
	 viewBox="-35 -68.572 888.48 696.572" style="enable-background:new -35 -68.572 888.48 696.572;" xml:space="preserve">
<path style="fill:#3F3D56;" d="M346.03,212.862c13.527-13.197,18.25-34.945,10.55-48.576c-7.7-13.632-24.907-13.984-38.434-0.788
	s-32.537,48.883-24.837,62.515C301.009,239.644,332.504,226.059,346.03,212.862z M299.35,220.017
	c-2.881-1.384-3.666-5.735-1.752-9.717s5.801-6.088,8.682-4.704s3.666,5.735,1.752,9.717S302.231,221.402,299.35,220.017
	L299.35,220.017z"/>
<path style="fill:#EA8172;" d="M329.315,202.821c-1.302-1.19-2.605-2.38-3.907-3.57c-1.788-1.432-3.252-3.226-4.297-5.265
	c-1.129-2.845-1.413-5.955-0.819-8.958c0.711-4.354,2.743-8.384,5.822-11.543l-0.209,3.031c1.565-1.829,3.405-3.402,5.455-4.663
	c1.929-0.996,4.051-0.926,4.89,0.846c0.96,2.028,0.046,5.666,1.347,7.293c2.25,2.814,8.115-3.264,10.588-0.764
	c1.441,1.457,0.759,4.913,0.004,7.822c-0.779,3.594-2.009,7.076-3.663,10.361c-3.011,5.421-8.51,9.005-12.229,7.542
	C331.182,204.429,330.171,203.707,329.315,202.821z"/>
<path style="fill:#2F2E41;" d="M317.78,203.549c-0.685-2.323,0.722-5.344,2.057-7.889l0.674-0.699
	c1.388-0.698,2.893-1.132,4.44-1.279c1.48-0.111,2.84,0.817,3.276,2.236c0.394,1.364,0.076,3.312,1.021,4.108
	c1.826,1.541,5.491-3.232,7.234-1.568c0.978,0.933,0.271,3.339-0.987,4.522c-1.19,0.99-2.658,1.587-4.201,1.707
	c-2.237,0.372-4.473,0.743-6.71,1.115c-1.308,0.301-2.659,0.369-3.991,0.201C319.263,205.791,318.171,204.838,317.78,203.549z"/>
<path style="fill:#FF6584;" d="M310.402,205.278c0.472-3.435,3.099-8.964,5.443-13.689l0.913-1.439
	c1.308-1.561,2.814-2.944,4.481-4.114c1.275-0.698,2.159-0.183,1.839,2.099c-0.284,2.02-1.461,5.313-1.002,6.164
	c0.889,1.645,6.303-7.753,7.063-5.872c0.426,1.056-1.304,5.268-2.952,7.758c-1.185,1.829-2.701,3.422-4.469,4.696
	c-2.131,1.633-4.263,3.265-6.394,4.898c-1.044,0.949-2.264,1.685-3.59,2.167C310.748,208.121,310.115,207.362,310.402,205.278z"/>
<path style="fill:#FFB8B8;" d="M311.141,217.764c-1.195-5.822-6.883-9.573-12.705-8.378c-0.621,0.127-1.229,0.309-1.818,0.544
	l-25.013-28.926l-5.393,19.126l24.58,24.536c2.573,5.393,9.031,7.679,14.424,5.106C309.728,227.62,312.178,222.655,311.141,217.764z
	"/>
<path style="fill:#3F3D56;" d="M228.107,107.598l-6.633,11.237c0,0,17.499,8.669,17.839,15.512c0.34,6.844,1.592,5.108,4.196,6.987
	s5.69,6.745,5.788,12.095s41.486,46.8,41.486,46.8l-11.272,15.62c-3.67-3.416-7.751-6.361-12.149-8.767
	c-6.701-3.516-25.296-10.039-26.647-13.654s-6.793-6.243-12-10s5.952-6.947-2.726-13.209s-55.762-55.562-64.198-60.33
	s-8.49-19.323-8.49-19.323l6.262-8.678L228.107,107.598z"/>
<path style="fill:#E6E6E6;" d="M605.214,401.035v-5.489c0.146-1.621,0.146-3.252,0-4.873V-58.072c0-5.799-4.701-10.5-10.5-10.5
	s-10.5,4.701-10.5,10.5v448.746c-0.146,1.621-0.146,3.252,0,4.873v5.489L477.918,618.52c10.544,10.544,27.639,10.544,38.184,0
	c0,0,0,0,0,0l68.113-172.815v170.223c0,5.799,4.701,10.5,10.5,10.5c5.799,0,10.5-4.701,10.5-10.5l0,0V445.705l68.113,172.815
	c10.544,10.544,27.639,10.544,38.184,0c0,0,0,0,0,0L605.214,401.035z"/>
<path style="fill:#F2F2F2;" d="M789.163,326.928H400.266c-9.413-0.011-17.04-7.638-17.051-17.051V37.979
	c0.01-9.413,7.638-17.041,17.051-17.051h388.897c9.413,0.011,17.04,7.639,17.051,17.051v271.898
	C806.203,319.289,798.575,326.917,789.163,326.928z"/>
<path style="fill:#E6E6E6;" d="M652.214,37.928h-115c-15.181-0.017-27.483-12.319-27.5-27.5v-0.5h170v0.5
	C679.697,25.609,667.395,37.911,652.214,37.928z"/>
<path style="fill:#E6E6E6;" d="M652.714,343.928h-115c-15.181-0.017-27.483-12.319-27.5-27.5v-0.5h170v0.5
	C680.197,331.609,667.895,343.911,652.714,343.928z"/>
<path style="fill:#EA8172;" d="M624.714,274.428c0,16.569-12.431-2-29-2s-30-13.431-30-30s13.431-30,30-30
	S624.714,257.859,624.714,274.428z"/>
<path style="fill:#EA8172;" d="M509.714,124.428c0,16.569-13.431,30-30,30s-25,33.569-25,17s8.431-77,25-77
	S509.714,107.859,509.714,124.428L509.714,124.428z"/>
<path style="fill:#3F3D56;" d="M469.334,91.353c4.33-2.526,9.632-1.657,13.745,0.902c4.678,2.91,7.267,7.923,8.407,13.185
	c1.144,5.654,1.124,11.482-0.057,17.128c-1.116,5.445-3.973,11.23-9.769,12.793c-3.863,1.042-8.18-0.301-9.589-4.287
	c-1.102-3.255-0.426-6.85,1.785-9.481c3.252-3.659,8.921-3.848,13.178-2.022c5.007,2.148,8.059,6.995,9.345,12.125
	c1.529,6.099,0.566,12.426-1.043,18.404c-1.749,6.498-4.064,12.851-6.147,19.247c-4.061,12.473-7.798,25.183-8.77,38.328
	c-1.484,20.081,5.127,43.251,23.48,54.022c9.907,5.814,21.83,6.741,32.921,4.445c11.696-2.421,22.143-8.463,31.214-16.086
	c4.714-4.029,9.149-8.373,13.277-13.001c2.543-3.065,6.686-4.291,10.487-3.102c9.542,3.032,7.784,18.308-1.657,20.182
	c-4.29,0.851-8.94-1.212-12.115-3.999c-3.475-3.173-5.906-7.324-6.975-11.906c-2.401-9.633,0.403-20.237,6.1-28.195
	c6.436-8.991,16.854-14.589,27.163-17.918c11.737-3.791,24.029-4.908,36.235-6.144c12.491-1.265,25.114-2.741,36.908-7.285
	c9.49-3.687,18.305-8.918,26.088-15.482c15.689-13.12,26.802-30.887,31.733-50.736c1.149-4.798,1.893-9.683,2.226-14.605
	c0.132-1.927-2.869-1.919-3,0c-1.469,21.457-11.411,41.867-26.449,57.103c-7.5,7.633-16.281,13.891-25.943,18.489
	c-11.641,5.501-24.297,7.662-37.004,9.04c-12.978,1.407-26.12,2.237-38.728,5.854c-11.146,3.197-22.261,8.619-29.854,17.635
	c-6.695,7.949-10.364,18.855-9.057,29.244c1.216,9.666,7.379,19.618,17.505,21.719c4.752,0.986,9.67-0.269,12.84-4.087
	c3.585-4.431,4.375-10.501,2.044-15.703c-3.022-5.707-9.881-8.189-15.856-5.738c-2.109,0.97-3.97,2.407-5.44,4.203
	c-8.655,9.491-18.481,18.349-30.307,23.668c-11.031,4.962-24.023,6.827-35.689,3.031c-22.085-7.186-30.545-32.437-29.214-53.655
	c0.871-13.886,5.043-27.298,9.356-40.438c2.202-6.71,4.71-13.401,6.257-20.302c1.385-6.178,1.808-12.724-0.209-18.817
	c-1.761-5.318-5.308-10.053-10.559-12.282c-4.771-2.024-10.617-1.977-14.882,1.216c-6.166,4.616-6.731,16.061,0.885,19.613
	c5.053,2.357,11.141,0.522,14.868-3.392c4.179-4.389,5.539-10.574,6.009-16.428c0.889-11.061-1.55-24.403-12.801-29.395
	c-4.635-2.056-9.986-2.288-14.455,0.319c-0.701,0.443-0.911,1.37-0.468,2.071C467.772,91.501,468.639,91.728,469.334,91.353
	L469.334,91.353z"/>
<path style="fill:#EA8172;" d="M738.714,105.428c0,17.57,27.58,62.37,18.3,75.82c-1.15,1.68-2.367,3.313-3.65,4.9
	c-4.15,5.19-8.911,9.861-14.18,13.91c-0.89,0.7-1.79,1.37-2.7,2.02c-3.234,2.293-6.626,4.355-10.15,6.17
	c-0.64,0.32-1.29,0.64-1.94,0.96c-41.567,19.978-91.46,2.477-111.438-39.09c-15.462-32.17-8.768-70.61,16.658-95.66
	c0.74-0.74,1.5-1.46,2.28-2.17c7.737-7.089,16.745-12.651,26.55-16.39c0.01,0,0.01-0.01,0.02-0.01
	c14.704-5.584,30.683-6.918,46.11-3.85h0.02c0.34,0.07,0.68,0.14,1.02,0.22C743.384,60.248,738.714,65.278,738.714,105.428z"/>
<path style="fill:#3F3D56;" d="M726.344,207.868c0.012,0.127,0.009,0.254-0.01,0.38c-0.64,0.32-1.29,0.64-1.94,0.96
	c-0.594-0.185-1.012-0.719-1.05-1.34c-0.125-1.511-0.416-3.003-0.87-4.45c-3.9-12.56-17.58-18.98-29.52-21.25
	c-14.61-2.79-29.98-1.63-43.88-7.66c-5.699-2.319-10.748-5.992-14.71-10.7c-4.146-5.186-6.229-11.721-5.85-18.35
	c0.82-15.59,11.81-27.79,15.57-42.5c1.55-6.06,1.55-12.38-1.21-18.1c-2.34-4.86-6.54-9.13-12.14-9.73
	c-0.458-0.034-0.874-0.282-1.12-0.67c0.74-0.74,1.5-1.46,2.28-2.17c1.014,0.151,2.01,0.41,2.97,0.77c5.48,2.1,9.29,6.85,11.43,12.18
	c2.47,6.17,2.24,12.81,0.52,19.14c-4.01,14.76-15.79,27.57-15.33,43.48c0.4,13.79,12.44,22.39,24.58,26.03
	c15.02,4.5,31.29,2.37,46.15,7.58C713.904,185.568,725.254,194.738,726.344,207.868z"/>
<path style="fill:#3F3D56;" d="M739.184,200.058c-0.89,0.7-1.79,1.37-2.7,2.02c-0.247-0.264-0.367-0.621-0.33-0.98
	c0.5-12.936-3.961-25.574-12.47-35.33c-3.684-4.284-8.066-7.916-12.96-10.74c-5.12-2.93-10.74-4.5-16.31-6.32
	c-5.48-1.79-11.05-3.96-15.24-8.05c-4.27-4.17-6.37-9.82-7.01-15.66c-1.51-13.84,5.42-26.56,5.98-40.19
	c0.25-6.08-1.09-11.99-4.86-16.88c-3.26-4.22-8.07-7.1-13.52-6.46c-1.8,0.22-1.89-2.42-0.33-2.93c0.107-0.035,0.218-0.058,0.33-0.07
	c6.34-0.74,12.09,2.74,15.86,7.62c4.39,5.67,5.91,12.58,5.47,19.65c-0.86,13.68-8.06,26.83-5.72,40.73
	c0.812,5.913,4.094,11.204,9.03,14.56c5.02,3.31,10.95,4.8,16.61,6.64c5.648,1.724,10.984,4.337,15.81,7.74
	c4.722,3.457,8.861,7.646,12.26,12.41C735.866,177.181,739.411,188.499,739.184,200.058z"/>
<path style="fill:#3F3D56;" d="M757.014,181.248c-1.15,1.68-2.367,3.313-3.65,4.9c1.337-7.769,1.041-15.732-0.87-23.38
	c-2.335-9.629-7.061-18.513-13.74-25.83c-3.346-3.642-7.199-6.784-11.44-9.33c-4.85-2.9-10.15-5.35-13.58-10.03
	c-7.44-10.16-2.42-23.42-0.02-34.34c1.26-5.7,1.94-11.77-0.39-17.29c-1.81-4.28-5.39-8.29-10.25-8.78c-1.91-0.19-1.92-3.2,0-3
	c0.36,0.04,0.72,0.09,1.08,0.15c5.31,0.96,9.4,4.92,11.62,9.8c2.88,6.37,2.31,13.25,0.84,19.92c-2.42,10.97-8.03,25.5,2,34.46
	c4.23,3.78,9.72,5.87,14.28,9.22c4.086,2.987,7.746,6.516,10.88,10.49C753.375,150.415,758.094,165.756,757.014,181.248z"/>
<polygon style="fill:#FFB6B6;" points="220.165,595.844 237.911,595.844 246.355,527.397 220.165,527.397 "/>
<path style="fill:#2F2E41;" d="M210.799,626.591h12.726l2.271-12.015l5.818,12.015h33.753c4.19,0,7.587-3.396,7.588-7.587
	c0-2.493-1.225-4.827-3.276-6.244l-26.954-18.615v-12.147l-28.351,1.692L210.799,626.591z"/>
<polygon style="fill:#FFB6B6;" points="82.583,560.636 97.847,569.687 140.024,515.122 117.498,501.763 "/>
<path style="fill:#2F2E41;" d="M58.844,582.304l10.946,6.491l8.082-9.176l-1.125,13.302l29.031,17.217
	c3.604,2.138,8.259,0.949,10.396-2.655c1.272-2.144,1.409-4.777,0.367-7.042l-13.688-29.76l6.196-10.448l-25.248-13.006
	L58.844,582.304z"/>
<polygon style="fill:#FFB6B6;" points="222.085,158.198 236.709,213.172 154.786,214.25 165.565,161.431 "/>
<path style="fill:#2F2E41;" d="M237.024,212.477l17.399,56.748l7.704,151.757L242.16,565.879h-22.098l-9.054-142.534l-22.268-97.528
	l13.037,102.004l-68.289,99.842H99.933l61.693-110.022l-35.912-114.212c0,0,3.601-56.481,26.377-86.483l5.544-16.016
	L237.024,212.477z"/>
<path style="fill:#3F3D56;" d="M238.158,107.567c-0.047-0.494-0.118-1.012-0.212-1.506c-3.687-24.695-26.644-41.763-51.354-38.18
	c-11.147,1.67-21.301,7.35-28.559,15.973v0.024c-0.376,0.447-0.729,0.917-1.082,1.388c-0.635,0.8-1.223,1.647-1.788,2.494
	c-5.099,7.704-7.726,16.781-7.528,26.018c0,0,4.281,22.795,5.175,28.841c0.612,3.905,1.082,7.74,1.435,11.48
	c0.212,1.882,0.376,3.74,0.518,5.552v0.024c0.706,8.963,0.941,17.008,1.153,23.242c0.094,3.388,2.447,13.009,2.588,13.127
	c0.145,0.11,0.302,0.216,0.469,0.317c2.423,1.41,5.389,1.52,7.909,0.291l10.582-4.937l0,0c7.027-3.269,14.837-4.476,22.523-3.479
	c12.577,1.63,30.897,3.87,31.727,3.193c0.988-0.847,5.761-43.563,7.008-56.996c0.165-1.929,0.306-3.929,0.376-6.069v-0.024
	C239.305,121.401,238.991,114.458,238.158,107.567z"/>
<path style="fill:#FFB8B8;" d="M299.01,115.247c-1.794,5.337-7.576,8.21-12.913,6.415c-0.569-0.191-1.12-0.433-1.647-0.721
	l-26.856,24.322l-2.868-18.609l25.943-20.244c3.041-4.775,9.378-6.181,14.153-3.14C298.817,105.815,300.548,110.767,299.01,115.247
	L299.01,115.247z"/>
<path style="fill:#3F3D56;" d="M199.054,68.081c0,0,26.43,4.936,11.388,56.242l5.808,25.431l27.251-15.675l1.651-6.626
	l23.859-16.748l11.281,20.337l-13.717,13.107l-3.962,8.182l-7.037,2.327l-21.798,20.828l-9.14,5.586c0,0-11.621,7.201-21.959,3.3
	c-2.76-1.033-5.34-2.493-7.647-4.328c-4.512-3.598-8.516-9.097-11.023-17.411c-9.301-30.845-12.793-52.414-12.793-52.414
	L199.054,68.081z"/>
<path style="fill:#3F3D56;" d="M297.262,140.241l-16.001-60.194c-0.188-0.708,0.233-1.434,0.941-1.622
	c0.655-0.174,1.337,0.174,1.579,0.808l21.536,56.258L297.262,140.241z"/>
<path style="fill:#CCCCCC;" d="M310.583,153.888c-2.332-0.486-4.599-1.246-6.753-2.265c-1.094-0.522-2.152-1.111-3.186-1.719
	c-0.368-0.205-0.735-0.425-1.095-0.636c-0.861-0.503-1.722-1.006-2.59-1.517c-0.735-0.425-1.476-0.857-2.203-1.288
	c-1.075-0.627-2.231-1.355-2.542-2.564c-0.193-1.159,0.145-2.343,0.92-3.226c0.787-0.92,1.697-1.727,2.705-2.398
	c2.258-1.659,4.519-3.315,6.781-4.969l0.605-1.326c1.838,0.776,3.525,1.867,4.987,3.225c1.167,1.186,1.8,2.797,1.752,4.46
	c-0.021,0.364-0.081,0.725-0.178,1.076c-0.437,1.537-1.581,2.846-2.26,4.32c-0.138,0.309-0.257,0.626-0.356,0.949
	c-0.615,1.923-0.341,4.02,0.748,5.72C308.587,152.683,309.511,153.431,310.583,153.888z"/>
<path style="fill:#E6E6E6;" d="M313.929,154.444c-1.144,0.084-2.291-0.106-3.346-0.556
	C311.688,154.129,312.805,154.315,313.929,154.444z"/>
<path style="fill:#EA8172;" d="M310.583,153.888c-2.332-0.486-4.599-1.246-6.753-2.265c-1.094-0.522-2.152-1.111-3.186-1.719
	c-0.368-0.205-0.735-0.425-1.095-0.636c-0.861-0.503-1.722-1.006-2.59-1.517c0.303-0.407,0.628-0.798,0.972-1.171
	c3.205-3.488,7.583-5.455,12.032-6.916c-0.021,0.364-0.081,0.725-0.178,1.076c-0.437,1.537-1.581,2.846-2.26,4.32
	c-0.138,0.309-0.257,0.626-0.356,0.949c-0.615,1.923-0.341,4.02,0.748,5.72C308.587,152.683,309.511,153.431,310.583,153.888z"/>
<circle style="fill:#FFB6B6;" cx="187.157" cy="25.804" r="34.639"/>
<path style="fill:#2F2E41;" d="M166.031-2.458v0.024c0.003,1.507-0.189,3.008-0.572,4.466c-0.061,0.256-0.134,0.523-0.219,0.779
	v0.012c-1.655,5.276-5.685,9.473-10.89,11.34c-0.377,0.146-0.767,0.268-1.156,0.377c-0.82,0.238-1.659,0.409-2.507,0.511
	c-0.762,0.108-1.53,0.161-2.3,0.158c-0.601,0.003-1.202-0.026-1.801-0.085c-1.4-0.142-2.778-0.456-4.101-0.937
	c-0.207-0.06-0.41-0.133-0.608-0.219c-0.099-0.035-0.197-0.076-0.292-0.122c-8.997-3.766-13.238-14.113-9.472-23.111
	c0.113-0.269,0.232-0.536,0.358-0.799l0.012-0.012c0.865-1.811,2.038-3.458,3.468-4.867c3.188-3.176,4.593-11.135,9.436-11.135
	c0.231-0.004,0.463,0.004,0.694,0.024c3.249,0.11,9.254,7.12,11.81,8.774c1.898,1.199,3.543,2.757,4.843,4.587
	c1.357,1.883,2.325,4.017,2.847,6.279C165.88-5.116,166.031-3.789,166.031-2.458z"/>
<path style="fill:#2F2E41;" d="M144.474-8.602c-2.74,3.19-7.03,4.43-10.9,6.09c-13.866,6.083-23.836,18.62-26.64,33.5
	c-1.07,5.97-0.93,12.15-2.62,17.97c-1.68,5.82-5.84,11.53-11.81,12.54c-4.04,0.69-8.09-0.87-11.89-2.41
	c-2.09-0.84-4.18-1.683-6.27-2.53c2.18-5.47,4.357-10.94,6.53-16.41c-3.493,5.162-7.555,9.915-12.11,14.17
	c-7.49-3.02-14.987-6.04-22.49-9.06c18.46,0.07,15.31-17.85,19.44-35.83c2.27-9.88,21.6-16.57,25.39-25.97
	c5.92-14.737,22.665-21.885,37.402-15.966c6.351,2.551,11.583,7.283,14.758,13.346C147.054-17.652,147.164-11.752,144.474-8.602z"/>
<path style="fill:#2F2E41;" d="M218.511-8.848c-3.38-4.451-11.894-4.624-13.602,0.697l-3.59-4.869
	c-4.658-10.178-16.949-8.107-28.062-6.765c-11.113,1.343-20.905,9.174-25.877,19.203c-4.971,10.029-5.422,21.94-2.559,32.761
	c1.926,7.281,5.464,14.385,11.333,19.105s33.458,15.882,35.755,6.271c-2.871,12.539,2.905,10.577,11.455,20.188
	c4.428-13.303,6.505-38.368,10.933-51.671c0.667-2.002,1.333-4.005,2-6.007c1.405-4.221,2.812-8.449,3.828-12.78
	C221.399,1.842,221.89-4.398,218.511-8.848z"/>
<path style="fill:#FF6584;" d="M195.742,29.34l-1.481-9.426c1.006-11.723-0.636-30.371,7.057-32.934l4.705,4.705
	C203.047-7.323,197.386,10.208,195.742,29.34z"/>
<path style="fill:#FF6584;" d="M206.714-20.572c0,7.18-2.462,13-5.5,13s-5.5-5.82-5.5-13s5.5-13,5.5-13
	S206.714-27.752,206.714-20.572z"/>
<path style="fill:#FF6584;" d="M211.251-17.362c-2.885,6.575-7.479,10.915-10.26,9.694s-2.698-7.54,0.187-14.114
	s10.26-9.694,10.26-9.694S214.136-23.937,211.251-17.362z"/>
</svg>
